<svg fill="none" height="151" viewBox="0 0 380 151" width="380" xmlns="http://www.w3.org/2000/svg" xmlns:xlink="http://www.w3.org/1999/xlink"><clipPath id="a"><path d="m0 0h380v150.506h-380z"/></clipPath><g clip-path="url(#a)"><path d="m191.504 80.589c-63.861.1123-113.7592.0554-138.8952.0083-11.4866-.0215-22.4597 4.5729-30.5176 12.759l-22.0912 22.4427v35.243h344.59l-7.081-7.234c-7.96-8.132-18.86-12.715-30.24-12.715h-28.811c-10.874 0-21.331-4.187-29.202-11.691l-28.443-27.1192c-7.893-7.526-18.403-11.713-29.309-11.6938z" fill="#eee"/><path d="m134.457 122.77c-38.6967.062-84.0915.016-101.5199-.007-4.6811-.006-9.1126 1.97-12.2548 5.44l-20.6823 22.839h217.753l-3.032-3.087c-4.199-4.275-9.94-6.684-15.932-6.684h-27.037c-5.757 0-11.292-2.223-15.449-6.206l-6.353-6.087c-4.17-3.994-9.719-6.218-15.493-6.208z" fill="#cbcbcb"/><path d="m42.6968 7.47168h46.9663v85.3933h-46.9663z" fill="#000"/><path d="m42.6968 84.3252h48.0337v8.5393h-48.0337z" fill="#757575"/><path d="m44.8313 86.46h20.2809v4.26966h-20.2809z" fill="#1f1f1f"/><path d="m67.2473 86.46h20.2809v4.26966h-20.2809z" fill="#1f1f1f"/><path d="m48.9089 113.572h15.8234v6.723c0 1.451-1.1762 2.627-2.6272 2.627h-10.5689c-1.451 0-2.6273-1.176-2.6273-2.627z" fill="#000"/><path d="m105.73 113.572h16.543v6.723c0 1.451-1.177 2.627-2.628 2.627h-11.288c-1.451 0-2.627-1.176-2.627-2.627z" fill="#000"/><path d="m46.6331 98.9902h76.846v15.1065h-76.846z" fill="#cbcbcb"/><g fill="#000"><path d="m0 0h85.3933v6.40449h-85.3933z" transform="matrix(1 0 0 -1 42.6968 99.2695)"/><path d="m65.0247 98.9902h5.91123v15.1065h-5.91123z"/><path d="m99.8345 98.9902h5.91123v15.1065h-5.91123z"/><path d="m70.9353 98.9902h28.8993v3.94082h-28.8993z"/><path d="m70.9353 106.872h28.8993v3.94082h-28.8993z"/></g><path d="m0 7.47168h42.6966v85.3933h-42.6966z" fill="#5b91f5"/><path d="m89.6631 7.47168h38.427v85.3933h-38.427z" fill="#1e54b7"/><path d="m96.552 13.6064h3.28402v73.562h-3.28402z" fill="#fff"/><path d="m109.687 73.373h2.62721v11.8225h-2.62721z" fill="#fff" transform="matrix(0 1 -1 0 183.06 -36.314)"/><circle cx="56.8141" cy="106.544" fill="#fff" r="4.26922"/><circle cx="113.956" cy="106.544" fill="#fff" r="4.26922"/><path d="m42.6963 43.7637h46.9663v40.5618h-46.9663z" fill="#afafaf"/><path d="m53.3704 43.7637h3.20225v40.5618h-3.20225z" fill="#545454"/><path d="m75.7859 43.7637h3.20225v40.5618h-3.20225z" fill="#545454"/><path d="m42.6963 48.0332h46.9663v32.0225h-46.9663z" fill="#f6f6f6"/></g></svg>